HIERARCHY
ROOT pelvis
{
  OFFSET 0 100 0
  CHANNELS 6 Xposition Yposition Zposition Zrotation Xrotation Yrotation
  JOINT pelvis_right_femur
  {
    OFFSET -10.78128 -3.44521 -0.5502486
    CHANNELS 3 Zrotation Xrotation Yrotation
    JOINT right_femur_tibia
    {
      OFFSET -0.8047443 -44.0398 -0.1307829
      CHANNELS 3 Zrotation Xrotation Yrotation
      JOINT right_tibia_foot
      {
        OFFSET 3.006224 -47.83518 -5
        CHANNELS 3 Zrotation Xrotation Yrotation
        End Site
        {
          OFFSET 0 -5 15
        }
      }
    }
  }
  JOINT pelvis_left_femur
  {
    OFFSET 10.78128 -3.44521 -0.5502486
    CHANNELS 3 Zrotation Xrotation Yrotation
    JOINT left_femur_tibia
    {
      OFFSET 0.8047443 -44.0398 -0.1307829
      CHANNELS 3 Zrotation Xrotation Yrotation
      JOINT left_tibia_foot
      {
        OFFSET -4.370144 -48.10324 -4.275266
        CHANNELS 3 Zrotation Xrotation Yrotation
        End Site
        {
          OFFSET 0 -5 15
        }
      }
    }
  }
  JOINT pelvis_spine1
  {
    OFFSET 0 6.468898 -3.129235
    CHANNELS 3 Zrotation Xrotation Yrotation
    JOINT spine1
    {
      OFFSET 0 23.15396 4.99043
      CHANNELS 3 Zrotation Xrotation Yrotation
      JOINT spine2
      {
        OFFSET 0 20.79997 -5.064912
        CHANNELS 3 Zrotation Xrotation Yrotation
        JOINT neck
        {
          OFFSET 0 14.38658 9.616178
          CHANNELS 3 Zrotation Xrotation Yrotation
          End Site
          {
            OFFSET 0 20 0
          }
        }
      }
      JOINT right_manubrium
      {
        OFFSET -5.722621 16.35077 3.967754
        CHANNELS 3 Zrotation Xrotation Yrotation
        JOINT right_clavicle
        {
          OFFSET -13.16364 1.694482 -4.693211
          CHANNELS 3 Zrotation Xrotation Yrotation
          JOINT right_humerus
          {
            OFFSET -28.5034 -0.3100689 -2.792744
            CHANNELS 3 Zrotation Xrotation Yrotation
            JOINT right_radius
            {
              OFFSET -25.15693 0.02248979 -1.271978
              CHANNELS 3 Zrotation Xrotation Yrotation
              End Site
              {
                OFFSET -15 0 0
              }
            }
          }
        }
      }
      JOINT left_manubrium
      {
        OFFSET 5.722621 16.35077 3.967754
        CHANNELS 3 Zrotation Xrotation Yrotation
        JOINT left_clavicle
        {
          OFFSET 13.16364 1.694482 -4.693211
          CHANNELS 3 Zrotation Xrotation Yrotation
          JOINT left_humerus
          {
            OFFSET 29.39168 -1.063119 -2.237045
            CHANNELS 3 Zrotation Xrotation Yrotation
            JOINT left_radius
            {
              OFFSET 24.59957 -0.9528479 0.9047498
              CHANNELS 3 Zrotation Xrotation Yrotation
              End Site
              {
                OFFSET 15 -0 -0
              }
            }
          }
        }
      }
    }
  }
}
MOTION
Frames: 15
Frame Time: 0.0416666666667
1760.053 102.49 2241.885 7.971753 -1.387768 70.82046 0.402253 -6.483076 3.402636 -0 51.39285 -0 -1.208244 0.9224065 -7.167809 -5.181352 -0.2093387 -8.209756 -0 17.93511 -0 -0.4448351 -13.42972 17.66142 -1.712778 -2.14197 3.666468 0.7205253 11.41555 -8.463825 -0.2819308 20.65754 8.136414 7.027945 -19.29752 4.528327 3.320601 -18.59411 11.67082 86.91074 27.92224 -19.02035 -0 0 15.87593 -21.26518 9.532032 5.541149 11.05925 -27.41142 -3.632531 -88.34753 10.30794 12.63965 0 0 -15.85217 16.78158 14.72844 -11.87348
1765.438 102.7539 2243.108 7.782156 -1.416681 71.85154 0.5308926 -11.18478 3.063347 -0 47.49689 -0 -0.8461265 -0.2409415 -7.80847 -5.075048 3.264109 -8.163735 -0 16.06068 -0 -0.9931514 -14.66571 16.76245 -1.672616 -2.110436 3.584057 0.6962979 11.44546 -8.437266 -0.216294 20.67132 8.109182 6.997797 -19.33134 4.587837 3.274255 -18.45352 11.67707 87.14275 27.98471 -19.1551 -0 0 15.53424 -21.23736 9.60163 5.617402 11.03804 -27.42248 -3.664255 -88.1196 10.28394 12.28328 0 0 -16.45827 16.84329 14.77335 -11.88619
1770.742 102.5344 2244.358 7.276657 -1.260047 72.80071 0.4681354 -16.24532 2.59618 -0 41.40341 -0 -0.333957 -1.506873 -8.361581 -5.032727 6.941641 -8.124067 -0 14.08179 -0 -1.829758 -16.15087 15.57201 -1.63383 -2.097227 3.51882 0.68946 11.4736 -8.430223 -0.1528052 20.67509 8.076768 6.947311 -19.38172 4.658668 3.224296 -18.34368 11.69719 87.39002 28.06387 -19.31036 -0 0 15.21017 -21.15513 9.666146 5.665795 11.00329 -27.43253 -3.657721 -87.91698 10.27514 12.00325 0 0 -17.03056 16.90579 14.83593 -11.89878
1776.02 101.7732 2245.688 6.330694 -0.8796731 73.63456 0.2062653 -21.52802 1.931986 -0 33.12227 -0 0.1615877 -2.575537 -8.70513 -5.083819 10.72666 -8.209753 -0 12.28261 -0 -2.998009 -17.93986 14.08896 -1.602134 -2.114536 3.480052 0.7161569 11.4844 -8.461972 -0.09915086 20.65459 8.050012 6.87007 -19.47232 4.753199 3.181537 -18.28518 11.73858 87.62817 28.17008 -19.48306 -0 0 14.95085 -20.98744 9.724281 5.667453 10.96227 -27.43486 -3.561642 -87.77732 10.30794 11.85946 0 0 -17.48473 16.95629 14.92903 -11.90308
1781.305 100.53 2247.139 4.887419 -0.3383087 74.35038 -0.06317925 -26.4767 1.119705 -0 23.68963 -0 0.2134622 -3.135565 -8.649298 -5.16715 14.23625 -8.702631 -0 11.25134 -0 -4.475531 -19.97314 12.48802 -1.587506 -2.176613 3.481922 0.7956859 11.45752 -8.554803 -0.06742161 20.59411 8.042963 6.760222 -19.62922 4.883557 3.162117 -18.3081 11.80904 87.81393 28.31472 -19.65892 -0 0 14.83003 -20.70521 9.772477 5.600789 10.92375 -27.41583 -3.314752 -87.75736 10.41844 11.94024 0 0 -17.68059 16.97429 15.06346 -11.88747
1786.595 99.0646 2248.721 3.118633 0.08693706 74.99794 0.2351647 -30.05573 0.5561388 -0 15.84546 -0 -0.7880016 -3.123794 -8.040904 -5.064731 16.82221 -9.919026 -0 11.77794 -0 -6.012144 -21.83564 11.19188 -1.607822 -2.284398 3.537071 0.924609 11.38195 -8.701617 -0.07321631 20.49916 8.066854 6.634535 -19.83336 5.033847 3.191409 -18.43786 11.89901 87.8577 28.48662 -19.77255 -0 0 14.94787 -20.35092 9.795037 5.470306 10.90006 -27.35415 -2.916998 -87.91999 10.62221 12.32148 0 0 -17.41687 16.93766 15.22059 -11.84196
1791.976 97.7655 2250.428 1.443768 0.07632677 75.63875 1.590011 -31.47539 0.8002947 -0 12.25203 -0 -2.664198 -2.749256 -7.093785 -4.620257 18.16514 -11.38842 -0 14.30901 -0 -7.13481 -22.50744 10.4709 -1.679246 -2.402735 3.63798 1.041808 11.28111 -8.827608 -0.1284755 20.42016 8.120146 6.561411 -19.96294 5.123421 3.293285 -18.6565 11.95923 87.63158 28.60716 -19.69088 -0 0 15.37645 -20.10929 9.754573 5.33392 10.91468 -27.25184 -2.533719 -88.27487 10.84471 12.94441 0 0 -16.56737 16.84937 15.32751 -11.77761
1797.739 96.88889 2252.285 0.3409336 -0.3110198 76.22932 3.445352 -30.93256 1.752069 -0 12.16646 -0 -3.871975 -1.99604 -6.464491 -4.033765 18.71221 -11.66139 -0 18.99603 -0 -7.746488 -20.9118 10.01034 -1.783384 -2.474023 3.752656 1.070783 11.20479 -8.848265 -0.2293521 20.40794 8.189544 6.617203 -19.89002 5.059439 3.446785 -18.88928 11.93758 87.12188 28.55963 -19.35847 -0 0 16.03574 -20.17149 9.629715 5.256838 10.98666 -27.1713 -2.40559 -88.71571 10.941 13.57237 0 0 -15.34787 16.7416 15.30021 -11.7218
1804.049 96.52676 2254.301 0.193925 -0.9105271 76.5991 5.083258 -28.55859 2.931926 -0 13.87814 -0 -3.985451 -1.435746 -6.440186 -3.440594 18.47414 -10.66287 -0 26.36952 -0 -8.403533 -17.1894 9.696732 -1.860097 -2.476042 3.863663 1.021574 11.19751 -8.784763 -0.3417496 20.45346 8.229649 6.756517 -19.66712 4.860689 3.545571 -19.07352 11.86359 86.6179 28.35069 -18.98615 -0 0 16.62512 -20.46159 9.472782 5.225023 11.0512 -27.1736 -2.589729 -89.05524 10.86008 14.01101 0 0 -14.32485 16.65511 15.13599 -11.70821
1810.623 96.75487 2256.39 0.9909886 -1.705116 76.57075 6.389268 -24.08505 4.004997 -0 17.18985 -0 -4.437281 -2.459175 -6.557404 -2.776322 16.36003 -9.734909 -0 36.40428 -0 -9.268168 -12.42764 9.948671 -1.866719 -2.445865 3.984571 0.9723408 11.27721 -8.731905 -0.4200145 20.51876 8.172756 6.835181 -19.44935 4.632327 3.48377 -19.22302 11.81875 86.46635 28.11825 -18.84877 -0 0 16.88058 -20.69391 9.347837 5.151318 10.99603 -27.25077 -2.934134 -89.18378 10.67229 14.28994 0 0 -13.90423 16.6418 14.93995 -11.78965
1816.924 97.53241 2258.379 2.368451 -2.373414 76.10875 7.056966 -17.89472 4.441255 -0 20.134 -0 -5.783683 -5.198019 -6.239983 -2.382716 11.29357 -9.307571 -0 47.37511 -0 -9.513435 -8.150656 11.13278 -1.834441 -2.438046 4.13528 0.9688401 11.40194 -8.732951 -0.4639595 20.57549 8.03427 6.800437 -19.30319 4.448475 3.313632 -19.41317 11.83246 86.59411 27.94996 -18.90288 -0 0 16.94351 -20.73216 9.24856 5.004669 10.8206 -27.333 -3.24264 -89.2273 10.49065 14.63569 0 0 -13.78268 16.67963 14.80595 -11.92575
1822.727 98.68229 2260.131 3.598112 -2.316982 75.40489 6.777936 -11.36417 4.319831 -0 19.12146 -0 -6.128687 -7.56604 -5.366877 -2.626955 4.00912 -8.824825 -0 56.13861 -0 -8.859964 -5.682331 12.61006 -1.820481 -2.471695 4.311672 0.9988567 11.509 -8.759489 -0.5041444 20.61487 7.896294 6.715252 -19.19922 4.320718 3.171625 -19.67677 11.87638 86.69614 27.85113 -18.92806 -0 0 17.09689 -20.65739 9.142678 4.842437 10.61651 -27.35879 -3.422281 -89.36249 10.38852 15.19376 0 0 -13.4516 16.69703 14.73459 -12.01362
1828.363 99.96814 2261.731 4.435441 -1.652428 74.64091 5.899052 -5.882146 4.563985 -0 15.43751 -0 -4.025485 -7.876662 -4.545429 -2.887202 -2.777834 -7.844741 -0 60.99223 -0 -8.449664 -4.74616 13.489 -1.837706 -2.520914 4.483729 1.026194 11.5795 -8.769215 -0.5547581 20.64542 7.805559 6.656085 -19.08976 4.217659 3.111818 -19.95659 11.91139 86.64389 27.78203 -18.83745 -0 0 17.38808 -20.59629 9.025486 4.720569 10.45472 -27.34036 -3.529698 -89.59388 10.34067 15.8448 0 0 -12.86719 16.67392 14.674 -12.02371
1834.054 101.033 2263.351 5.628057 -1.208059 73.84574 5.118614 -1.510118 5.013008 -0 13.33978 -0 -1.697789 -7.525733 -4.429717 -2.620407 -7.441871 -6.646288 -0 61.55167 -0 -8.418643 -4.971358 14.7303 -1.869694 -2.56096 4.631397 1.034481 11.62316 -8.750985 -0.6133785 20.67244 7.761967 6.648432 -18.96331 4.115338 3.113074 -20.1987 11.92287 86.47646 27.70807 -18.66912 -0 0 17.73503 -20.59569 8.909073 4.646675 10.35044 -27.31523 -3.633053 -89.85209 10.30173 16.44027 0 0 -12.21299 16.62505 14.59418 -11.98048
1839.701 101.6219 2264.996 6.983512 -1.19935 73.03094 4.665125 2.441936 5.318995 -0 13.08966 -0 -0.5472418 -8.39149 -4.588559 -1.928717 -11.23518 -5.654674 -0 57.68374 -0 -8.1979 -5.888568 16.60735 -1.899067 -2.595151 4.751463 1.038199 11.65584 -8.728795 -0.6623852 20.69401 7.733962 6.649205 -18.8535 4.033371 3.127163 -20.39648 11.93022 86.31896 27.65078 -18.51393 -0 0 18.0322 -20.59869 8.812136 4.597299 10.26965 -27.291 -3.716267 -90.07484 10.27185 16.93826 0 0 -11.65836 16.57805 14.52593 -11.92485
